<svg width="47" height="44" viewBox="0 0 47 44" fill="none" xmlns="http://www.w3.org/2000/svg">
<path d="M38.6562 0C43.0745 0 46.6562 3.58172 46.6562 8V36C46.6562 40.4183 43.0745 44 38.6562 44H8.15625C3.73797 44 0.15625 40.4183 0.15625 36V8C0.15625 3.58172 3.73797 0 8.15625 0H38.6562Z" fill="#DBEAFE"/>
<path d="M38.6562 0C43.0745 0 46.6562 3.58172 46.6562 8V36C46.6562 40.4183 43.0745 44 38.6562 44H8.15625C3.73797 44 0.15625 40.4183 0.15625 36V8C0.15625 3.58172 3.73797 0 8.15625 0H38.6562Z" stroke="#E5E7EB"/>
<path d="M34.6562 34.5H12.1562V10.5H34.6562V34.5Z" stroke="#E5E7EB"/>
<g clip-path="url(#clip0_1_115)">
<path d="M24.0312 21.375V12.6484C24.0312 12.2969 24.3047 12 24.6562 12C29.4883 12 33.4062 15.918 33.4062 20.75C33.4062 21.1016 33.1094 21.375 32.7812 21.375H24.0312ZM13.4062 22.625C13.4062 17.8867 16.9258 13.9648 21.4922 13.3398C21.8516 13.2891 22.1562 13.5781 22.1562 13.9414V23.25L28.2695 29.3633C28.5312 29.625 28.5117 30.0547 28.2109 30.2656C26.6797 31.3594 24.8047 32 22.7812 32C17.6055 32 13.4062 27.8047 13.4062 22.625ZM33.9688 23.25C34.332 23.25 34.6172 23.5547 34.5703 23.9141C34.2695 26.0977 33.2188 28.0391 31.6836 29.4727C31.4492 29.6914 31.082 29.6758 30.8555 29.4453L24.6562 23.25H33.9688Z" fill="#2563EB"/>
</g>
<defs>
<clipPath id="clip0_1_115">
<path d="M12.1562 12H34.6562V32H12.1562V12Z" fill="white"/>
</clipPath>
</defs>
</svg>
