<svg width="25" height="24" viewBox="0 0 25 24" fill="none" xmlns="http://www.w3.org/2000/svg">
<g clip-path="url(#clip0_1_37)">
<path d="M3.03125 3C3.03125 2.17031 2.36094 1.5 1.53125 1.5C0.701562 1.5 0.03125 2.17031 0.03125 3V18.75C0.03125 20.8219 1.70937 22.5 3.78125 22.5H22.5312C23.3609 22.5 24.0312 21.8297 24.0312 21C24.0312 20.1703 23.3609 19.5 22.5312 19.5H3.78125C3.36875 19.5 3.03125 19.1625 3.03125 18.75V3ZM22.0906 7.05938C22.6766 6.47344 22.6766 5.52188 22.0906 4.93594C21.5047 4.35 20.5531 4.35 19.9672 4.93594L15.0312 9.87656L12.3406 7.18594C11.7547 6.6 10.8031 6.6 10.2172 7.18594L4.96719 12.4359C4.38125 13.0219 4.38125 13.9734 4.96719 14.5594C5.55313 15.1453 6.50469 15.1453 7.09063 14.5594L11.2812 10.3734L13.9719 13.0641C14.5578 13.65 15.5094 13.65 16.0953 13.0641L22.0953 7.06406L22.0906 7.05938Z" fill="white"/>
</g>
<defs>
<clipPath id="clip0_1_37">
<path d="M0.03125 0H24.0312V24H0.03125V0Z" fill="white"/>
</clipPath>
</defs>
</svg>
