<svg width="448" height="68" viewBox="0 0 448 68" fill="none" xmlns="http://www.w3.org/2000/svg">
<g filter="url(#filter0_dd_1_10)">
<path d="M106.031 10C106.031 5.58172 109.613 2 114.031 2H146.031C150.45 2 154.031 5.58172 154.031 10V50C154.031 54.4183 150.45 58 146.031 58H114.031C109.613 58 106.031 54.4183 106.031 50V10Z" fill="#0284C7"/>

<g clip-path="url(#clip0_1_10)">
<path d="M121.031 20C121.031 19.1703 120.361 18.5 119.531 18.5C118.702 18.5 118.031 19.1703 118.031 20V35.75C118.031 37.8219 119.709 39.5 121.781 39.5H140.531C141.361 39.5 142.031 38.8297 142.031 38C142.031 37.1703 141.361 36.5 140.531 36.5H121.781C121.369 36.5 121.031 36.1625 121.031 35.75V20ZM140.091 24.0594C140.677 23.4734 140.677 22.5219 140.091 21.9359C139.505 21.35 138.553 21.35 137.967 21.9359L133.031 26.8766L130.341 24.1859C129.755 23.6 128.803 23.6 128.217 24.1859L122.967 29.4359C122.381 30.0219 122.381 30.9734 122.967 31.5594C123.553 32.1453 124.505 32.1453 125.091 31.5594L129.281 27.3734L131.972 30.0641C132.558 30.65 133.509 30.65 134.095 30.0641L140.095 24.0641L140.091 24.0594Z" fill="white"/>
</g>
</g>
<path d="M173.302 32.36L167.059 10.5418H172.098L175.709 25.7016H175.89L179.875 10.5418H184.189L188.163 25.7336H188.355L191.966 10.5418H197.006L190.763 32.36H186.267L182.112 18.0951H181.942L177.797 32.36H173.302ZM205.089 32.6796C203.406 32.6796 201.957 32.3387 200.742 31.6569C199.535 30.968 198.604 29.9949 197.951 28.7378C197.298 27.4736 196.971 25.9786 196.971 24.2528C196.971 22.5695 197.298 21.0922 197.951 19.8209C198.604 18.5496 199.524 17.5589 200.71 16.8486C201.903 16.1384 203.303 15.7833 204.908 15.7833C205.987 15.7833 206.992 15.9573 207.923 16.3053C208.86 16.6462 209.677 17.1611 210.373 17.8501C211.076 18.539 211.623 19.4055 212.013 20.4495C212.404 21.4864 212.599 22.7009 212.599 24.093V25.3394H198.782V22.5269H208.327C208.327 21.8735 208.185 21.2947 207.901 20.7904C207.617 20.2861 207.223 19.892 206.719 19.6079C206.222 19.3167 205.643 19.1711 204.982 19.1711C204.293 19.1711 203.683 19.3309 203.15 19.6505C202.624 19.963 202.212 20.3856 201.914 20.9182C201.616 21.4438 201.463 22.0297 201.456 22.6761V25.3501C201.456 26.1597 201.605 26.8593 201.903 27.4488C202.209 28.0383 202.638 28.4928 203.192 28.8124C203.746 29.132 204.403 29.2918 205.163 29.2918C205.668 29.2918 206.129 29.2208 206.548 29.0788C206.967 28.9367 207.326 28.7236 207.624 28.4395C207.923 28.1555 208.15 27.8074 208.306 27.3955L212.504 27.6725C212.29 28.681 211.854 29.5617 211.193 30.3145C210.54 31.0603 209.695 31.6427 208.658 32.0617C207.628 32.4736 206.438 32.6796 205.089 32.6796ZM220.227 32.6689C219.183 32.6689 218.253 32.4878 217.436 32.1256C216.619 31.7563 215.973 31.213 215.497 30.4957C215.028 29.7712 214.794 28.8692 214.794 27.7897C214.794 26.8806 214.961 26.1171 215.295 25.4992C215.629 24.8813 216.083 24.3841 216.658 24.0077C217.234 23.6313 217.887 23.3472 218.619 23.1555C219.357 22.9637 220.131 22.8288 220.941 22.7506C221.893 22.6512 222.66 22.5589 223.242 22.4736C223.825 22.3813 224.247 22.2464 224.51 22.0688C224.773 21.8913 224.904 21.6285 224.904 21.2805V21.2165C224.904 20.5418 224.691 20.0198 224.265 19.6505C223.846 19.2812 223.249 19.0965 222.475 19.0965C221.658 19.0965 221.009 19.2776 220.526 19.6398C220.043 19.9949 219.723 20.4424 219.567 20.9822L215.369 20.6413C215.582 19.6469 216.001 18.7876 216.626 18.0631C217.251 17.3316 218.058 16.7705 219.045 16.3799C220.039 15.9822 221.19 15.7833 222.496 15.7833C223.406 15.7833 224.276 15.8898 225.107 16.1029C225.945 16.316 226.687 16.6462 227.333 17.0937C227.987 17.5411 228.501 18.1164 228.878 18.8195C229.254 19.5155 229.442 20.3501 229.442 21.3231V32.36H225.138V30.0908H225.011C224.748 30.6022 224.396 31.0532 223.956 31.4438C223.516 31.8273 222.987 32.1292 222.369 32.3493C221.751 32.5624 221.037 32.6689 220.227 32.6689ZM221.527 29.5368C222.195 29.5368 222.784 29.4055 223.295 29.1427C223.807 28.8728 224.208 28.5106 224.499 28.056C224.79 27.6015 224.936 27.0866 224.936 26.5113V24.7748C224.794 24.8671 224.599 24.9523 224.35 25.0305C224.109 25.1015 223.835 25.1689 223.53 25.2329C223.224 25.2897 222.919 25.343 222.614 25.3927C222.308 25.4353 222.031 25.4743 221.783 25.5099C221.25 25.588 220.785 25.7123 220.387 25.8827C219.989 26.0532 219.68 26.284 219.46 26.5752C219.24 26.8593 219.13 27.2144 219.13 27.6405C219.13 28.2584 219.354 28.7307 219.801 29.0574C220.256 29.377 220.831 29.5368 221.527 29.5368ZM237.502 10.5418V32.36H232.963V10.5418H237.502ZM249.841 15.9964V19.4055H239.987V15.9964H249.841ZM242.224 12.0759H246.762V27.3316C246.762 27.7506 246.826 28.0773 246.954 28.3117C247.082 28.539 247.259 28.6988 247.487 28.7911C247.721 28.8834 247.991 28.9296 248.296 28.9296C248.509 28.9296 248.722 28.9118 248.936 28.8763C249.149 28.8337 249.312 28.8018 249.426 28.7805L250.139 32.1576C249.912 32.2286 249.593 32.3103 249.181 32.4026C248.769 32.502 248.268 32.5624 247.678 32.5837C246.585 32.6263 245.626 32.4807 244.802 32.1469C243.985 31.8131 243.35 31.2947 242.895 30.5915C242.441 29.8884 242.217 29.0006 242.224 27.9282V12.0759ZM257.687 22.8998V32.36H253.149V10.5418H257.559V18.8834H257.751C258.121 17.9175 258.717 17.1611 259.541 16.6143C260.365 16.0603 261.398 15.7833 262.641 15.7833C263.778 15.7833 264.768 16.0319 265.613 16.529C266.466 17.0191 267.126 17.7258 267.595 18.6491C268.071 19.5653 268.305 20.6626 268.298 21.941V32.36H263.76V22.7506C263.767 21.7421 263.511 20.9573 262.993 20.3962C262.481 19.8351 261.764 19.5546 260.841 19.5546C260.223 19.5546 259.676 19.686 259.2 19.9488C258.731 20.2116 258.362 20.5951 258.092 21.0993C257.829 21.5965 257.694 22.1966 257.687 22.8998ZM275.343 32.36L269.1 10.5418H274.139L277.75 25.7016H277.931L281.916 10.5418H286.23L290.204 25.7336H290.396L294.007 10.5418H299.047L292.804 32.36H288.308L284.153 18.0951H283.983L279.838 32.36H275.343ZM301.43 32.36V15.9964H305.969V32.36H301.43ZM303.71 13.887C303.035 13.887 302.456 13.6633 301.974 13.2158C301.498 12.7613 301.26 12.218 301.26 11.5859C301.26 10.9609 301.498 10.4246 301.974 9.97719C302.456 9.52264 303.035 9.29537 303.71 9.29537C304.385 9.29537 304.96 9.52264 305.436 9.97719C305.919 10.4246 306.16 10.9609 306.16 11.5859C306.16 12.218 305.919 12.7613 305.436 13.2158C304.96 13.6633 304.385 13.887 303.71 13.887ZM323.219 20.6626L319.064 20.9182C318.993 20.5631 318.841 20.2435 318.606 19.9594C318.372 19.6682 318.063 19.4374 317.679 19.267C317.303 19.0894 316.852 19.0006 316.326 19.0006C315.623 19.0006 315.03 19.1498 314.547 19.4481C314.064 19.7393 313.823 20.1299 313.823 20.6199C313.823 21.0106 313.979 21.3408 314.292 21.6107C314.604 21.8806 315.14 22.0972 315.9 22.2606L318.862 22.8572C320.453 23.1839 321.639 23.7094 322.42 24.4339C323.201 25.1583 323.592 26.11 323.592 27.289C323.592 28.3614 323.276 29.3025 322.644 30.1121C322.019 30.9218 321.159 31.5539 320.066 32.0084C318.979 32.4559 317.725 32.6796 316.305 32.6796C314.139 32.6796 312.413 32.2286 311.127 31.3266C309.849 30.4175 309.1 29.1817 308.88 27.6192L313.343 27.3849C313.478 28.0454 313.805 28.5496 314.324 28.8976C314.842 29.2386 315.506 29.409 316.316 29.409C317.111 29.409 317.75 29.2563 318.233 28.9509C318.723 28.6384 318.972 28.2371 318.979 27.7471C318.972 27.3351 318.798 26.9978 318.457 26.735C318.116 26.4651 317.591 26.2591 316.88 26.1171L314.047 25.5525C312.449 25.2329 311.259 24.6789 310.478 23.8905C309.703 23.1022 309.316 22.0972 309.316 20.8756C309.316 19.8245 309.6 18.9189 310.169 18.159C310.744 17.3991 311.55 16.8131 312.587 16.4012C313.631 15.9893 314.853 15.7833 316.252 15.7833C318.319 15.7833 319.945 16.2201 321.131 17.0937C322.324 17.9672 323.02 19.1569 323.219 20.6626ZM333.907 32.6796C332.224 32.6796 330.775 32.3387 329.561 31.6569C328.353 30.968 327.423 29.9949 326.769 28.7378C326.116 27.4736 325.789 25.9786 325.789 24.2528C325.789 22.5695 326.116 21.0922 326.769 19.8209C327.423 18.5496 328.343 17.5589 329.529 16.8486C330.722 16.1384 332.121 15.7833 333.726 15.7833C334.806 15.7833 335.811 15.9573 336.741 16.3053C337.678 16.6462 338.495 17.1611 339.191 17.8501C339.894 18.539 340.441 19.4055 340.832 20.4495C341.222 21.4864 341.418 22.7009 341.418 24.093V25.3394H327.6V22.5269H337.146C337.146 21.8735 337.004 21.2947 336.72 20.7904C336.436 20.2861 336.041 19.892 335.537 19.6079C335.04 19.3167 334.461 19.1711 333.801 19.1711C333.112 19.1711 332.501 19.3309 331.968 19.6505C331.443 19.963 331.031 20.3856 330.732 20.9182C330.434 21.4438 330.281 22.0297 330.274 22.6761V25.3501C330.274 26.1597 330.423 26.8593 330.722 27.4488C331.027 28.0383 331.457 28.4928 332.011 28.8124C332.565 29.132 333.222 29.2918 333.982 29.2918C334.486 29.2918 334.948 29.2208 335.367 29.0788C335.786 28.9367 336.144 28.7236 336.443 28.4395C336.741 28.1555 336.968 27.8074 337.124 27.3955L341.322 27.6725C341.109 28.681 340.672 29.5617 340.012 30.3145C339.358 31.0603 338.513 31.6427 337.476 32.0617C336.446 32.4736 335.257 32.6796 333.907 32.6796Z" fill="#1F2937"/>
<defs>
<filter id="filter0_dd_1_10" x="100.031" y="0" width="60" height="68" filterUnits="userSpaceOnUse" color-interpolation-filters="sRGB">
<feFlood flood-opacity="0" result="BackgroundImageFix"/>
<feColorMatrix in="SourceAlpha" type="matrix" values="0 0 0 0 0 0 0 0 0 0 0 0 0 0 0 0 0 0 127 0" result="hardAlpha"/>
<feOffset dy="4"/>
<feGaussianBlur stdDeviation="3"/>
<feColorMatrix type="matrix" values="0 0 0 0 0 0 0 0 0 0 0 0 0 0 0 0 0 0 0.1 0"/>
<feBlend mode="normal" in2="BackgroundImageFix" result="effect1_dropShadow_1_10"/>
<feColorMatrix in="SourceAlpha" type="matrix" values="0 0 0 0 0 0 0 0 0 0 0 0 0 0 0 0 0 0 127 0" result="hardAlpha"/>
<feOffset dy="2"/>
<feGaussianBlur stdDeviation="2"/>
<feColorMatrix type="matrix" values="0 0 0 0 0 0 0 0 0 0 0 0 0 0 0 0 0 0 0.1 0"/>
<feBlend mode="normal" in2="effect1_dropShadow_1_10" result="effect2_dropShadow_1_10"/>
<feBlend mode="normal" in="SourceGraphic" in2="effect2_dropShadow_1_10" result="shape"/>
</filter>
<clipPath id="clip0_1_10">
</clipPath>
</defs>
</svg>
