<svg width="44" height="44" viewBox="0 0 44 44" fill="none" xmlns="http://www.w3.org/2000/svg">
<path d="M36 0C40.4183 0 44 3.58172 44 8V36C44 40.4183 40.4183 44 36 44H8C3.58172 44 0 40.4183 0 36V8C0 3.58172 3.58172 0 8 0H36Z" fill="#F3E8FF"/>
<path d="M36 0C40.4183 0 44 3.58172 44 8V36C44 40.4183 40.4183 44 36 44H8C3.58172 44 0 40.4183 0 36V8C0 3.58172 3.58172 0 8 0H36Z" stroke="#E5E7EB"/>
<path d="M32 34.5H12V10.5H32V34.5Z" stroke="#E5E7EB"/>
<g clip-path="url(#clip0_1_117)">
<path d="M18.1133 29.4883L17.6211 30.6406C16.8906 30.2695 16.2188 29.8125 15.6094 29.2773L16.4961 28.3906C16.9844 28.8164 17.5273 29.1875 18.1133 29.4883ZM13.5859 22.625H12.332C12.3867 23.4531 12.543 24.2539 12.7891 25.0117L13.9531 24.5469C13.7617 23.9336 13.6328 23.2891 13.5859 22.625ZM13.5859 21.375C13.6406 20.6406 13.7891 19.9297 14.0195 19.2617L12.8672 18.7695C12.5742 19.5898 12.3906 20.4648 12.332 21.375H13.5859ZM14.5117 18.1133C14.8164 17.5312 15.1836 16.9883 15.6094 16.4922L14.7227 15.6055C14.1875 16.2148 13.7266 16.8867 13.3594 17.6172L14.5117 18.1133ZM27.5078 28.3906C26.9648 28.8594 26.3594 29.2617 25.707 29.5781L26.1719 30.7422C26.9805 30.3555 27.7266 29.8594 28.3945 29.2734L27.5078 28.3906ZM16.4922 15.6094C17.0352 15.1406 17.6406 14.7383 18.293 14.4219L17.8281 13.2578C17.0195 13.6445 16.2734 14.1406 15.6094 14.7266L16.4922 15.6094ZM29.4883 25.8867C29.1836 26.4688 28.8164 27.0117 28.3906 27.5078L29.2773 28.3945C29.8125 27.7852 30.2734 27.1094 30.6406 26.3828L29.4883 25.8867ZM30.4141 22.625C30.3594 23.3594 30.2109 24.0703 29.9805 24.7383L31.1328 25.2305C31.4258 24.4062 31.6094 23.5312 31.6641 22.6211H30.4141V22.625ZM24.5469 30.0469C23.9336 30.2422 23.2891 30.3672 22.625 30.4141V31.668C23.4531 31.6133 24.2539 31.457 25.0117 31.2109L24.5469 30.0469ZM21.375 30.4141C20.6406 30.3594 19.9297 30.2109 19.2617 29.9805L18.7695 31.1328C19.5938 31.4258 20.4688 31.6094 21.3789 31.6641V30.4141H21.375ZM30.0469 19.4531C30.2422 20.0664 30.3672 20.7109 30.4141 21.375H31.668C31.6133 20.5469 31.457 19.7461 31.2109 18.9883L30.0469 19.4531ZM15.6094 27.5078C15.1406 26.9648 14.7383 26.3594 14.4219 25.707L13.2578 26.1719C13.6445 26.9805 14.1406 27.7266 14.7266 28.3945L15.6094 27.5078ZM22.625 13.5859C23.3594 13.6406 24.0664 13.7891 24.7383 14.0195L25.2305 12.8672C24.4102 12.5742 23.5352 12.3906 22.625 12.332V13.5859ZM19.4531 13.9531C20.0664 13.7578 20.7109 13.6328 21.375 13.5859V12.332C20.5469 12.3867 19.7461 12.543 18.9883 12.7891L19.4531 13.9531ZM29.2773 15.6055L28.3906 16.4922C28.8594 17.0352 29.2617 17.6406 29.582 18.293L30.7461 17.8281C30.3594 17.0195 29.8633 16.2734 29.2773 15.6055ZM27.5078 15.6094L28.3945 14.7227C27.7852 14.1875 27.1133 13.7266 26.3828 13.3594L25.8906 14.5117C26.4688 14.8164 27.0156 15.1836 27.5078 15.6094Z" fill="#9333EA"/>
<path d="M22 27.3125C22.6041 27.3125 23.0938 26.8228 23.0938 26.2188C23.0938 25.6147 22.6041 25.125 22 25.125C21.3959 25.125 20.9062 25.6147 20.9062 26.2188C20.9062 26.8228 21.3959 27.3125 22 27.3125Z" fill="#9333EA"/>
<path d="M22.3007 24.1875H21.6757C21.4179 24.1875 21.207 23.9766 21.207 23.7188C21.207 20.9453 24.2304 21.2227 24.2304 19.5078C24.2304 18.7266 23.5351 17.9375 21.9882 17.9375C20.8515 17.9375 20.2578 18.3125 19.6757 19.0586C19.5234 19.2539 19.2422 19.293 19.0429 19.1523L18.5312 18.793C18.3125 18.6406 18.2617 18.332 18.4297 18.1211C19.2578 17.0586 20.2422 16.375 21.9922 16.375C24.0351 16.375 25.7968 17.5391 25.7968 19.5078C25.7968 22.1484 22.7734 21.9883 22.7734 23.7188C22.7695 23.9766 22.5586 24.1875 22.3007 24.1875Z" fill="#9333EA"/>
</g>
<defs>
<clipPath id="clip0_1_117">
<path d="M12 12H32V32H12V12Z" fill="white"/>
</clipPath>
</defs>
</svg>
