<svg width="15" height="15" viewBox="0 0 15 15" fill="none" xmlns="http://www.w3.org/2000/svg">
<g clip-path="url(#clip0_1_16)">
<path d="M7.09376 0.75C7.21954 0.75 7.34532 0.777344 7.46017 0.829297L12.609 3.01406C13.2106 3.26836 13.659 3.86172 13.6563 4.57812C13.6426 7.29063 12.527 12.2535 7.81564 14.5094C7.359 14.7281 6.82853 14.7281 6.37189 14.5094C1.66056 12.2535 0.544934 7.29063 0.531262 4.57812C0.528528 3.86172 0.976966 3.26836 1.57853 3.01406L6.73009 0.829297C6.8422 0.777344 6.96798 0.75 7.09376 0.75ZM7.09376 2.57656V12.9125C10.8672 11.0859 11.8817 7.0418 11.9063 4.61641L7.09376 2.57656Z" fill="#6B7280"/>
</g>
<defs>
<clipPath id="clip0_1_16">
<path d="M0.09375 0.75H14.0938V14.75H0.09375V0.75Z" fill="white"/>
</clipPath>
</defs>
</svg>
