<svg width="45" height="44" viewBox="0 0 45 44" fill="none" xmlns="http://www.w3.org/2000/svg">
<path d="M36.3281 0C40.7464 0 44.3281 3.58172 44.3281 8V36C44.3281 40.4183 40.7464 44 36.3281 44H8.32812C3.90985 44 0.328125 40.4183 0.328125 36V8C0.328125 3.58172 3.90985 0 8.32812 0H36.3281Z" fill="#DCFCE7"/>
<path d="M36.3281 0C40.7464 0 44.3281 3.58172 44.3281 8V36C44.3281 40.4183 40.7464 44 36.3281 44H8.32812C3.90985 44 0.328125 40.4183 0.328125 36V8C0.328125 3.58172 3.90985 0 8.32812 0H36.3281Z" stroke="#E5E7EB"/>
<path d="M32.3281 34.5H12.3281V10.5H32.3281V34.5Z" stroke="#E5E7EB"/>
<g clip-path="url(#clip0_1_113)">
<path d="M14.8281 13.25C13.4492 13.25 12.3281 14.3711 12.3281 15.75V28.25C12.3281 29.6289 13.4492 30.75 14.8281 30.75H29.8281C31.207 30.75 32.3281 29.6289 32.3281 28.25V19.5C32.3281 18.1211 31.207 17 29.8281 17H15.4531C15.1094 17 14.8281 16.7188 14.8281 16.375C14.8281 16.0312 15.1094 15.75 15.4531 15.75H29.8281C30.5195 15.75 31.0781 15.1914 31.0781 14.5C31.0781 13.8086 30.5195 13.25 29.8281 13.25H14.8281ZM28.5781 22.625C28.9096 22.625 29.2276 22.7567 29.462 22.9911C29.6964 23.2255 29.8281 23.5435 29.8281 23.875C29.8281 24.2065 29.6964 24.5245 29.462 24.7589C29.2276 24.9933 28.9096 25.125 28.5781 25.125C28.2466 25.125 27.9287 24.9933 27.6942 24.7589C27.4598 24.5245 27.3281 24.2065 27.3281 23.875C27.3281 23.5435 27.4598 23.2255 27.6942 22.9911C27.9287 22.7567 28.2466 22.625 28.5781 22.625Z" fill="#16A34A"/>
</g>
<defs>
<clipPath id="clip0_1_113">
<path d="M12.3281 12H32.3281V32H12.3281V12Z" fill="white"/>
</clipPath>
</defs>
</svg>
